<?xml version="1.0" standalone="no"?>
<!DOCTYPE svg PUBLIC "-//W3C//DTD SVG 20010904//EN"
 "http://www.w3.org/TR/2001/REC-SVG-20010904/DTD/svg10.dtd">
<svg version="1.0" xmlns="http://www.w3.org/2000/svg"
 width="512.000000pt" height="512.000000pt" viewBox="0 0 512.000000 512.000000"
 preserveAspectRatio="xMidYMid meet">
<metadata>
Created by potrace 1.11, written by Peter Selinger 2001-2013
</metadata>
<g transform="translate(0.000000,512.000000) scale(0.100000,-0.100000)"
fill="#000000" stroke="none">
<path d="M2409 5086 c-2 -2 -40 -6 -84 -10 -97 -8 -120 -11 -285 -42 -272 -51
-629 -202 -889 -376 -186 -124 -421 -339 -561 -513 -63 -78 -194 -268 -223
-323 -8 -15 -33 -61 -55 -102 -82 -153 -181 -417 -220 -590 -21 -91 -46 -247
-58 -365 -7 -65 -6 -413 1 -445 3 -14 7 -47 10 -75 5 -49 7 -60 19 -140 21
-128 79 -332 138 -484 194 -498 556 -932 1024 -1228 130 -83 378 -198 539
-252 83 -27 161 -52 175 -55 147 -30 235 -46 285 -51 33 -4 83 -11 110 -15 54
-9 464 -6 505 4 14 3 45 8 70 10 25 3 56 8 70 10 14 3 41 7 60 10 19 3 81 17
138 31 858 213 1538 850 1813 1698 25 78 76 290 85 352 3 28 8 59 10 70 12 63
19 190 19 340 0 207 -9 318 -41 480 -110 568 -402 1071 -839 1447 -108 93
-110 95 -208 162 -274 189 -572 321 -887 391 -103 23 -124 27 -225 40 -27 4
-61 9 -75 12 -29 5 -416 14 -421 9z m36 -1022 c58 -21 135 -106 135 -149 0
-26 -17 -35 -68 -35 -58 -1 -119 -33 -139 -75 -15 -31 -15 -42 -5 -81 7 -25
10 -50 6 -55 -21 -35 -194 -42 -247 -11 -46 26 -69 73 -75 151 -8 112 47 205
146 247 72 30 178 34 247 8z m92 -230 c11 -18 16 -45 15 -89 -3 -145 -62 -195
-229 -195 -73 0 -148 31 -148 60 0 14 29 16 86 5 26 -5 102 15 121 31 12 11
15 26 11 52 -2 20 -6 48 -7 62 -5 35 9 57 50 78 53 27 81 26 101 -4z m-199
-337 c50 -27 83 -85 89 -159 l6 -63 -39 52 c-55 73 -110 96 -166 67 -82 -42
-59 -159 61 -318 31 -40 50 -76 48 -85 -3 -9 -15 -40 -26 -70 -50 -133 -45
-146 98 -230 258 -153 350 -246 367 -372 9 -65 -14 -134 -105 -323 -92 -190
-103 -220 -103 -291 -1 -42 5 -63 28 -100 71 -114 78 -143 47 -196 -29 -50
-87 -40 -135 23 -14 18 -38 47 -52 63 -70 80 -73 144 -14 275 89 197 124 322
114 408 -13 107 -52 153 -217 254 -40 25 -109 45 -244 72 -69 14 -139 33 -155
43 -87 51 -118 236 -75 448 53 261 168 470 279 508 53 19 152 15 194 -6z m1
-143 c17 -14 43 -47 58 -73 63 -109 187 -247 268 -299 22 -14 75 -41 118 -59
l78 -33 51 26 c63 32 90 33 153 5 44 -20 170 -107 220 -153 15 -14 28 -17 60
-12 72 12 80 12 101 -2 19 -11 24 -10 49 16 99 104 199 24 212 -170 6 -81 -10
-145 -45 -177 -22 -20 -35 -24 -74 -21 -28 2 -48 -1 -48 -7 0 -14 19 -165 24
-190 3 -11 5 -25 5 -31 1 -6 13 -10 29 -9 15 1 56 -4 92 -11 269 -51 462 -269
475 -538 4 -74 -18 -191 -49 -260 -53 -117 -169 -235 -283 -287 -326 -148
-710 34 -798 379 -51 200 8 410 158 555 54 52 142 107 203 127 70 23 73 25 64
67 -7 33 -21 145 -23 181 0 6 -3 12 -6 12 -3 0 -53 -65 -111 -145 -58 -80
-129 -178 -159 -218 -29 -39 -76 -105 -105 -146 -28 -40 -60 -86 -71 -101 -11
-15 -50 -70 -87 -121 -111 -156 -108 -153 -166 -154 -49 -1 -51 0 -68 37 -9
21 -20 38 -24 38 -3 0 -16 18 -29 40 -43 77 -29 139 92 390 59 123 86 189 94
230 17 85 -10 175 -76 250 -17 19 -29 35 -28 36 1 1 65 28 142 59 177 72 212
90 225 115 13 24 -4 62 -43 99 l-26 23 -21 -45 c-22 -47 -41 -58 -90 -52 -17
2 -50 -5 -76 -16 -43 -20 -47 -20 -65 -3 -10 9 -19 25 -19 34 0 12 -15 24 -42
34 -68 28 -169 98 -245 172 -121 117 -233 291 -233 362 0 69 81 95 139 46z
m-404 -834 c6 -5 67 -20 135 -35 173 -35 216 -49 289 -92 164 -97 205 -196
155 -372 -14 -46 -36 -108 -49 -138 -46 -101 -75 -172 -75 -188 0 -8 -6 -15
-13 -15 -14 0 -323 309 -381 382 -44 55 -42 71 14 110 51 35 51 54 3 60 -21 3
-249 5 -506 5 -271 1 -473 5 -478 10 -25 25 168 244 236 268 31 11 112 14 350
14 170 -1 315 -5 320 -9z m-292 -364 c209 -29 417 -225 459 -431 l11 -55 132
0 132 0 0 -48 c0 -26 8 -62 16 -79 l17 -31 -108 -1 c-59 0 -125 0 -147 0 l-40
-1 -14 -57 c-21 -94 -77 -190 -156 -268 -141 -141 -319 -195 -515 -155 -162
33 -285 118 -377 263 -55 86 -77 167 -78 287 0 111 4 139 29 209 50 138 160
256 297 320 108 51 210 65 342 47z"/>
<path d="M3604 1909 c3 -30 9 -79 12 -109 4 -30 8 -57 10 -61 1 -3 6 -38 10
-78 5 -57 3 -75 -7 -82 -34 -21 -80 -1 -85 38 -2 8 -8 46 -14 83 -12 74 -14
82 -25 178 -4 34 -11 64 -14 66 -4 3 -34 -9 -68 -25 -72 -35 -134 -99 -172
-179 -22 -47 -26 -68 -26 -150 0 -81 4 -103 26 -150 39 -81 99 -144 177 -182
61 -30 74 -33 162 -33 82 0 103 4 152 27 196 92 276 322 176 510 -55 103 -162
179 -273 195 l-48 6 7 -54z"/>
<path d="M1501 1958 c-128 -14 -237 -95 -294 -216 -27 -58 -31 -78 -32 -152 0
-75 4 -93 32 -152 141 -299 567 -286 684 21 l19 51 -133 1 c-72 0 -142 2 -155
3 -35 4 -82 56 -89 99 -5 33 -3 38 21 47 15 5 101 10 191 10 l164 0 -15 42
c-58 164 -220 266 -393 246z"/>
</g>
</svg>
